<svg xmlns="http://www.w3.org/2000/svg" version="1.0" viewBox="0 0 512 512"><path fill="currentColor" d="M59 232.1c0 60.5-.3 76-1.2 75.5-15.2-6.3-31.9-3.7-45.4 7.2-11.8 9.5-15.6 23-8.9 31.7 4.2 5.7 10.3 8 20.5 8 18.4 0 35.3-10.5 40.6-25.2 1-3 1.3-15.6 1.4-61.6V210l70.8.2 70.7.3.3 48.9c.2 46.3.1 48.8-1.5 48.1-9.2-3.8-17.4-4.4-26.6-2-17.4 4.5-30.7 17.9-30.7 31 0 21.8 34.7 25 55.6 5.3 10.1-9.5 9.5-5.2 9.7-72.5l.2-58.8 70.8-.3 70.7-.2v49.1c0 46.4-.1 49.1-1.7 48.4-6.3-2.7-9.5-3.4-14.9-3.5-10.9 0-23.1 4.9-31.5 12.7-11.9 11.1-13.9 23-5.2 31.6 13.8 13.8 47.7 4.7 57.8-15.6l2.5-5.1V210h142v49c0 26.9-.1 49-.2 49-.2 0-2.7-.9-5.6-2-17.1-6.5-42.8 4.2-50.7 21.2-3 6.3-3.1 10.9-.6 16.4 8.9 19.5 49.5 12.4 61-10.8l3.1-6.1V156H59zm148.8-35.4.3 8.3H66v-17l70.8.2 70.7.3zm148.2-.2v8.5l-70.7-.2-70.8-.3-.3-6.9c-.2-3.8-.1-7.5.2-8.3.4-1.1 12.8-1.3 71.1-1.3H356zm149 0v8.5H363v-7.8c0-4.3.3-8.2.7-8.5.3-.4 32.3-.7 71-.7H505z"/></svg>