<?xml version="1.0" standalone="no"?>
<!DOCTYPE svg PUBLIC "-//W3C//DTD SVG 20010904//EN"
 "http://www.w3.org/TR/2001/REC-SVG-20010904/DTD/svg10.dtd">
<svg version="1.0" xmlns="http://www.w3.org/2000/svg"
 width="512.000000pt" height="512.000000pt" viewBox="0 0 512.000000 512.000000"
 preserveAspectRatio="xMidYMid meet">

<g transform="translate(0.000000,512.000000) scale(0.100000,-0.100000)"
fill="#000000" stroke="none">
<path d="M2080 2799 c0 -721 -1 -761 -17 -754 -112 46 -212 46 -324 1 -148
-60 -256 -192 -247 -303 21 -252 495 -216 627 49 l31 61 0 694 0 693 710 0
710 0 0 -601 c0 -569 -1 -601 -17 -594 -112 45 -212 46 -322 1 -313 -127 -337
-449 -35 -474 164 -13 355 91 418 228 l26 55 0 853 0 852 -780 0 -780 0 0
-761z"/>
</g>
</svg>
