<?xml version="1.0" standalone="no"?>
<!DOCTYPE svg PUBLIC "-//W3C//DTD SVG 20010904//EN"
 "http://www.w3.org/TR/2001/REC-SVG-20010904/DTD/svg10.dtd">
<svg version="1.0" xmlns="http://www.w3.org/2000/svg"
 width="512.000000pt" height="512.000000pt" viewBox="0 0 512.000000 512.000000"
 preserveAspectRatio="xMidYMid meet">

<g transform="translate(0.000000,512.000000) scale(0.100000,-0.100000)"
fill="#000000" stroke="none">
<path d="M590 2799 c0 -605 -3 -760 -12 -755 -152 63 -319 37 -454 -72 -118
-95 -156 -230 -89 -317 42 -57 103 -80 205 -80 184 0 353 105 406 252 10 30
13 156 14 616 l0 577 708 -2 707 -3 3 -489 c2 -463 1 -488 -15 -481 -92 38
-174 44 -266 20 -174 -45 -307 -179 -307 -310 0 -218 347 -250 556 -53 101 95
95 52 97 725 l2 588 708 3 707 2 0 -491 c0 -464 -1 -491 -17 -484 -63 27 -95
34 -149 35 -109 0 -231 -49 -315 -127 -119 -111 -139 -230 -52 -316 138 -138
477 -47 578 156 l25 51 0 588 0 588 710 0 710 0 0 -490 c0 -269 -1 -490 -2
-490 -2 0 -27 9 -56 20 -171 65 -428 -42 -507 -212 -30 -63 -31 -109 -6 -164
89 -195 495 -124 610 108 l31 61 0 854 0 853 -2265 0 -2265 0 0 -761z m1488
354 l3 -83 -711 0 -710 0 0 85 0 85 708 -2 707 -3 3 -82z m1482 2 l0 -85 -707
2 -708 3 -3 69 c-2 38 -1 75 2 83 4 11 128 13 711 13 l705 0 0 -85z m1490 0
l0 -85 -710 0 -710 0 0 78 c0 43 3 82 7 85 3 4 323 7 710 7 l703 0 0 -85z"/>
</g>
</svg>
