<svg xmlns="http://www.w3.org/2000/svg" version="1.0" viewBox="0 0 512 512"><path fill="currentColor" d="M278.9 86.9c-3.6 3.6-3.9 6.8-.6 6.7 1.2-.1 2.8-1.1 3.5-2.4 2-3.5 6.6-2.7 7 1.1.3 2.4-.2 3-2.7 4-3.8 1.4-4.3 4.7-.8 4.7 2.9 0 4.7 1.8 4.7 4.6 0 4.7-6.6 6-8.5 1.6-.7-1.5-1.8-2.2-3.7-2.2-3.2 0-3.1-.2-1.7 3.9 1.2 3.5 5.3 6.1 9.4 6.1 8.2 0 13.7-9.8 8.5-15-1.9-1.9-1.9-2.2-.5-3.6 3-3.1 1.7-8.7-2.6-10.9-4.5-2.4-8.7-1.9-12 1.4M134 133.9c0 5 .5 9.3 1 9.6.6.4 1-2.5 1-7.9V127h300v8.5c0 5 .4 8.5 1 8.5s1-3.8 1-9.5V125H134zM134 233.1c0 72.1-.1 76.1-1.7 75.4-6.4-2.7-9.6-3.4-15.4-3.5-22.1-.1-43.9 18.3-41.6 35 1.2 9 9.6 15 22.2 15.8 5.7.3 8.4-.1 14.9-2.2 12.8-4.3 20.9-10.7 26.2-20.6 1.8-3.3 1.9-7.1 2.2-73.8l.3-70.2 70.4.2 70.5.3.3 59.8c.2 52.8 0 59.6-1.3 59.1-15.7-6.6-34-3-47.2 9.4-12.5 11.6-13.3 26.3-1.9 33.9 15.4 10.4 45.3.6 54.6-18l2.5-5.1V189h142v59.5c0 32.7-.2 59.5-.3 59.5-.2 0-1.9-.8-3.8-1.8-2.6-1.3-5.9-1.7-13.9-1.7-10.1 0-10.8.2-18.3 3.7-27.4 13.1-30.3 40.6-4.9 45.9 16.4 3.4 38.9-7.7 45.8-22.6l2.4-5V157H134z"/></svg>