<?xml version="1.0" standalone="no"?>
<!DOCTYPE svg PUBLIC "-//W3C//DTD SVG 20010904//EN"
 "http://www.w3.org/TR/2001/REC-SVG-20010904/DTD/svg10.dtd">
<svg version="1.0" xmlns="http://www.w3.org/2000/svg"
 width="512.000000pt" height="512.000000pt" viewBox="0 0 512.000000 512.000000"
 preserveAspectRatio="xMidYMid meet">

<g transform="translate(0.000000,512.000000) scale(0.100000,-0.100000)"
fill="#000000" stroke="none">
<path d="M2789 4251 c-36 -36 -39 -68 -6 -67 12 1 28 11 35 24 20 35 66 27 70
-11 3 -24 -2 -30 -27 -40 -38 -14 -43 -47 -8 -47 29 0 47 -18 47 -46 0 -47
-66 -60 -85 -16 -7 15 -18 22 -37 22 -32 0 -31 2 -17 -39 12 -35 53 -61 94
-61 82 0 137 98 85 150 -19 19 -19 22 -5 36 30 31 17 87 -26 109 -45 24 -87
19 -120 -14z"/>
<path d="M1340 3781 c0 -50 5 -93 10 -96 6 -4 10 25 10 79 l0 86 1500 0 1500
0 0 -85 c0 -50 4 -85 10 -85 6 0 10 38 10 95 l0 95 -1520 0 -1520 0 0 -89z"/>
<path d="M1340 2789 c0 -721 -1 -761 -17 -754 -64 27 -96 34 -154 35 -221 1
-439 -183 -416 -350 12 -90 96 -150 222 -158 57 -3 84 1 149 22 128 43 209
107 262 206 18 33 19 71 22 738 l3 702 704 -2 705 -3 3 -598 c2 -528 0 -596
-13 -591 -157 66 -340 30 -472 -94 -125 -116 -133 -263 -19 -339 154 -104 453
-6 546 180 l25 51 0 698 0 698 710 0 710 0 0 -595 c0 -327 -2 -595 -3 -595 -2
0 -19 8 -38 18 -26 13 -59 17 -139 17 -101 0 -108 -2 -183 -37 -274 -131 -303
-406 -49 -459 164 -34 389 77 458 226 l24 50 0 848 0 847 -1520 0 -1520 0 0
-761z"/>
</g>
</svg>
